<svg xmlns="http://www.w3.org/2000/svg" width="220" height="37" viewBox="0 0 220 37">
  <defs>
    <style>
      .cls-1{fill:#0064a4;fill-rule:evenodd}
    </style>
  </defs>
  <path id="UCI" class="cls-1" d="M21.354 32.13a11.386 11.386 0 0 0 4.429-2.55 11.513 11.513 0 0 0 2.838-4.4 18.122 18.122 0 0 0 1.011-6.386V1.879h-8.515v17.174a6.569 6.569 0 0 1-1.493 4.747 5.354 5.354 0 0 1-4.01 1.526 5.237 5.237 0 0 1-4.014-1.587 6.958 6.958 0 0 1-1.493-4.9V1.879H1.6V19.01a18.027 18.027 0 0 0 .968 6.211 11.266 11.266 0 0 0 2.768 4.359 11.209 11.209 0 0 0 4.386 2.55 18.962 18.962 0 0 0 5.8.828 19.173 19.173 0 0 0 5.832-.828zm32.207.349a14.942 14.942 0 0 0 3.612-1.438 13.488 13.488 0 0 0 2.881-2.18 22.634 22.634 0 0 0 2.346-2.746l-6.278-4.533a17.589 17.589 0 0 1-1.4 1.5 9.578 9.578 0 0 1-1.5 1.177 6.434 6.434 0 0 1-1.763.763 8.147 8.147 0 0 1-2.128.262 6.593 6.593 0 0 1-2.9-.632 6.937 6.937 0 0 1-2.258-1.722 8.019 8.019 0 0 1-1.483-2.593 9.437 9.437 0 0 1-.538-3.2v-.089a9.124 9.124 0 0 1 .538-3.138 8.078 8.078 0 0 1 1.483-2.572 6.955 6.955 0 0 1 2.258-1.722 6.6 6.6 0 0 1 2.9-.632 6.971 6.971 0 0 1 3.741.959 10.909 10.909 0 0 1 2.828 2.616l6.278-4.926a16.652 16.652 0 0 0-2.258-2.572 13.858 13.858 0 0 0-2.838-2.027 14.3 14.3 0 0 0-3.462-1.308 17.946 17.946 0 0 0-4.214-.458 16.2 16.2 0 0 0-6.337 1.222 15.09 15.09 0 0 0-5.01 3.378 15.861 15.861 0 0 0-3.311 5.056 16.029 16.029 0 0 0-1.2 6.212v.087a16.008 16.008 0 0 0 1.226 6.3 15.816 15.816 0 0 0 3.311 5.013A14.786 14.786 0 0 0 43 31.825 15.669 15.669 0 0 0 49.067 33a17.778 17.778 0 0 0 4.494-.521zM67 32.392h8.385V1.879H67v30.513z"/>
  <path id="Division_of_Career_Pathways" data-name="Division of Career Pathways" class="cls-1" d="M92.037 13.889h3.888a5.641 5.641 0 0 0 5.952-5.676V8.18a5.616 5.616 0 0 0-5.952-5.644h-3.888v11.353zM93.3 12.7V3.72h2.624a4.387 4.387 0 0 1 4.64 4.492v.033a4.362 4.362 0 0 1-4.64 4.46H93.3zm10.752-9.033h1.408V2.293h-1.408v1.378zm.08 10.217h1.232V5.5h-1.232v8.385zm6.543.065h1.088l3.6-8.45h-1.328l-2.8 6.958-2.783-6.957h-1.359zm6.336-10.282h1.408V2.293h-1.408v1.378zm.08 10.217h1.232V5.5h-1.232v8.385zm6.512.162c1.648 0 2.944-.924 2.944-2.514V11.5c0-1.508-1.376-2.011-2.656-2.4-1.1-.341-2.128-.649-2.128-1.443v-.029a1.376 1.376 0 0 1 1.6-1.216 4.634 4.634 0 0 1 2.448.811l.56-.941a5.6 5.6 0 0 0-2.976-.924c-1.632 0-2.816.957-2.816 2.4v.032c0 1.541 1.44 1.995 2.736 2.368 1.088.308 2.064.633 2.064 1.476v.032A1.48 1.48 0 0 1 123.668 13a4.8 4.8 0 0 1-2.864-1.07l-.624.892a5.642 5.642 0 0 0 3.42 1.229zm5.264-10.379h1.408V2.293h-1.408v1.378zm.08 10.217h1.232V5.5h-1.232v8.385zm7.551.195a4.325 4.325 0 0 0 4.337-4.379v-.028a4.312 4.312 0 1 0-8.623.032v.033a4.267 4.267 0 0 0 4.288 4.346zm.032-1.119a3.126 3.126 0 0 1-3.055-3.26v-.028a3.076 3.076 0 0 1 3.025-3.244 3.154 3.154 0 0 1 3.071 3.272v.037a3.075 3.075 0 0 1-3.04 3.227zm6.209.925h1.231v-4.8a2.452 2.452 0 0 1 2.48-2.627 2.222 2.222 0 0 1 2.288 2.53v4.9h1.232V8.682a3.044 3.044 0 0 0-3.17-3.357 3.126 3.126 0 0 0-2.832 1.638V5.5h-1.228v8.385zm17.791.195a4.325 4.325 0 0 0 4.337-4.38v-.028a4.312 4.312 0 1 0-8.624.032v.033a4.267 4.267 0 0 0 4.288 4.346zm.032-1.119a3.127 3.127 0 0 1-3.056-3.26v-.029a3.077 3.077 0 0 1 3.024-3.244A3.154 3.154 0 0 1 163.6 9.7v.037a3.075 3.075 0 0 1-3.037 3.227zm6.672.925h1.232V6.607h2.608V5.536h-2.624v-.681c0-1.2.48-1.784 1.44-1.784a4.066 4.066 0 0 1 1.2.211V2.2a3.7 3.7 0 0 0-1.36-.211 2.416 2.416 0 0 0-1.776.649 2.983 2.983 0 0 0-.72 2.157v.725H166.1v1.087h1.136v7.282zM97.156 32.837a5.8 5.8 0 0 0 4.48-1.995l-.832-.827a4.833 4.833 0 0 1-3.616 1.638 4.453 4.453 0 0 1-4.336-4.687v-.033a4.425 4.425 0 0 1 4.336-4.655 4.837 4.837 0 0 1 3.52 1.557l.864-.941a5.79 5.79 0 0 0-4.368-1.8 5.683 5.683 0 0 0-5.663 5.871V27a5.627 5.627 0 0 0 5.615 5.837zm8.624-.016a3.61 3.61 0 0 0 2.976-1.427v1.249h1.216v-5.126a3.343 3.343 0 0 0-.864-2.465 3.641 3.641 0 0 0-2.672-.924 6.7 6.7 0 0 0-3.007.714l.368 1.022a5.687 5.687 0 0 1 2.511-.6 2.131 2.131 0 0 1 2.448 2.271v.259a8.559 8.559 0 0 0-2.528-.357c-2.095 0-3.535.941-3.535 2.741v.032c0 1.718 1.536 2.61 3.087 2.61zm.24-1.006a1.838 1.838 0 0 1-2.079-1.671v-.032c0-1.005.879-1.687 2.415-1.687a8.4 8.4 0 0 1 2.416.357v.779a2.484 2.484 0 0 1-2.752 2.254zm6.241.827h1.231V29.3c0-2.53 1.472-3.844 3.28-3.844h.1v-1.345a3.544 3.544 0 0 0-3.376 2.335v-2.189h-1.231v8.385zm6.863-3.681h6.56c.016-.195.016-.324.016-.438 0-2.465-1.408-4.444-3.856-4.444a4.117 4.117 0 0 0-3.967 4.379A4.145 4.145 0 0 0 122 32.837a4.247 4.247 0 0 0 3.408-1.573l-.768-.7a3.4 3.4 0 0 1-2.608 1.184 2.907 2.907 0 0 1-2.908-2.788zm0-1.006a2.876 2.876 0 0 1 2.688-2.822c1.632 0 2.5 1.3 2.64 2.822h-5.328zm8.832 1.006h6.56c.016-.195.016-.324.016-.438 0-2.465-1.408-4.444-3.856-4.444a4.118 4.118 0 0 0-3.968 4.379 4.146 4.146 0 0 0 4.128 4.379 4.247 4.247 0 0 0 3.408-1.573l-.768-.7a3.4 3.4 0 0 1-2.608 1.184 2.907 2.907 0 0 1-2.912-2.788zm0-1.006a2.876 2.876 0 0 1 2.688-2.822c1.632 0 2.5 1.3 2.64 2.822h-5.328zm8.416 4.687h1.228V29.3c0-2.53 1.472-3.844 3.28-3.844h.1v-1.345a3.544 3.544 0 0 0-3.376 2.335v-2.189h-1.232v8.385zm11.168 0h1.26v-4.006h2.72c2.384 0 4.4-1.265 4.4-3.714v-.032c0-2.238-1.664-3.6-4.192-3.6h-4.188v11.352zm1.264-5.174v-5h2.832c1.808 0 3.008.843 3.008 2.465v.032c0 1.492-1.216 2.5-3.072 2.5H148.8zM160 32.82a3.61 3.61 0 0 0 2.976-1.427v1.249h1.224v-5.125a3.343 3.343 0 0 0-.864-2.465 3.641 3.641 0 0 0-2.672-.924 6.707 6.707 0 0 0-3.008.714l.368 1.022a5.691 5.691 0 0 1 2.512-.6 2.131 2.131 0 0 1 2.448 2.271v.259a8.559 8.559 0 0 0-2.528-.357c-2.1 0-3.536.941-3.536 2.741v.032c-.004 1.718 1.532 2.61 3.08 2.61zm.24-1.006a1.839 1.839 0 0 1-2.08-1.671v-.031c0-1.005.88-1.687 2.416-1.687a8.4 8.4 0 0 1 2.416.357v.779a2.484 2.484 0 0 1-2.748 2.254zm8.928.973a3.065 3.065 0 0 0 1.488-.357v-1.07a2.563 2.563 0 0 1-1.2.292 1.232 1.232 0 0 1-1.392-1.395v-4.9h2.624v-1.1h-2.624v-2.53h-1.232v2.53h-1.152v1.1h1.152v5.06a2.119 2.119 0 0 0 2.34 2.371zm3.7-.146h1.232v-4.8a2.452 2.452 0 0 1 2.48-2.627 2.222 2.222 0 0 1 2.287 2.53v4.9h1.233v-5.208a3.044 3.044 0 0 0-3.167-3.357 3.126 3.126 0 0 0-2.832 1.638V20.8h-1.232v11.842zm11.168.065h1.088l2.239-6.617 2.224 6.617h1.072l2.912-8.45h-1.28l-2.176 6.73-2.24-6.763h-1.024l-2.223 6.763-2.176-6.73h-1.312zm13.088.114a3.61 3.61 0 0 0 2.975-1.427v1.249h1.216v-5.125a3.343 3.343 0 0 0-.864-2.465 3.64 3.64 0 0 0-2.671-.924 6.707 6.707 0 0 0-3.008.714l.368 1.022a5.691 5.691 0 0 1 2.512-.6 2.131 2.131 0 0 1 2.447 2.271v.259a8.557 8.557 0 0 0-2.527-.357c-2.1 0-3.536.941-3.536 2.741v.032c0 1.718 1.536 2.61 3.088 2.61zm.24-1.006a1.839 1.839 0 0 1-2.08-1.671v-.031c0-1.005.88-1.687 2.416-1.687a8.4 8.4 0 0 1 2.415.357v.779a2.484 2.484 0 0 1-2.751 2.254zm7.84 3.471c1.247 0 2.047-.633 2.751-2.368l3.472-8.66h-1.312l-2.656 6.99-3.007-6.99h-1.36l3.759 8.352c-.5 1.184-.959 1.573-1.695 1.573a2.56 2.56 0 0 1-1.3-.308l-.416.989a3.718 3.718 0 0 0 1.76.422zm10.271-2.485c1.648 0 2.944-.924 2.944-2.514v-.028c0-1.508-1.376-2.011-2.656-2.4-1.1-.341-2.128-.649-2.128-1.443v-.033a1.376 1.376 0 0 1 1.6-1.216 4.634 4.634 0 0 1 2.448.811l.56-.941a5.6 5.6 0 0 0-2.976-.924c-1.632 0-2.816.957-2.816 2.4v.032c0 1.541 1.44 1.995 2.736 2.368 1.088.308 2.064.633 2.064 1.476v.032a1.48 1.48 0 0 1-1.712 1.33 4.8 4.8 0 0 1-2.864-1.07l-.623.892a5.637 5.637 0 0 0 3.423 1.228z"/>
</svg>
